<svg id="Capa_1" enable-background="new 0 0 512 512" height="512" viewBox="0 0 512 512" width="512" xmlns="http://www.w3.org/2000/svg"><g><g><path d="m470.68 334.64c-3.839 0-7.677-1.464-10.606-4.394-5.858-5.858-5.858-15.355 0-21.213 14.139-14.139 21.926-32.973 21.926-53.033s-7.787-38.894-21.926-53.033c-5.858-5.858-5.858-15.355 0-21.213 5.857-5.858 15.355-5.858 21.213 0 19.806 19.805 30.713 46.173 30.713 74.246s-10.907 54.441-30.713 74.246c-2.929 2.929-6.768 4.394-10.607 4.394z"/><path d="m428.254 292.213c-3.839 0-7.678-1.464-10.606-4.394-5.858-5.858-5.858-15.355 0-21.213 2.833-2.833 4.394-6.6 4.394-10.607s-1.561-7.773-4.394-10.607c-5.858-5.858-5.858-15.355 0-21.213 5.857-5.858 15.355-5.858 21.213 0 17.546 17.545 17.546 46.094 0 63.64-2.929 2.93-6.768 4.394-10.607 4.394z"/></g><g><path d="m41.32 334.64c-3.839 0-7.678-1.464-10.606-4.394-19.807-19.805-30.714-46.173-30.714-74.246s10.907-54.441 30.713-74.246c5.858-5.858 15.355-5.857 21.213 0 5.858 5.858 5.858 15.355 0 21.213-14.139 14.139-21.926 32.973-21.926 53.033s7.787 38.894 21.926 53.033c5.858 5.858 5.858 15.355 0 21.213-2.928 2.929-6.767 4.394-10.606 4.394z"/><path d="m83.746 292.213c-3.839 0-7.678-1.464-10.606-4.394-17.546-17.545-17.546-46.094 0-63.64 5.857-5.858 15.355-5.858 21.213 0s5.858 15.355 0 21.213c-2.833 2.833-4.394 6.6-4.394 10.607s1.561 7.773 4.394 10.607c5.858 5.858 5.858 15.355 0 21.213-2.929 2.93-6.768 4.394-10.607 4.394z"/></g><path d="m256 512c27.922 0 52.019-16.353 63.255-40h-126.51c11.236 23.647 35.333 40 63.255 40z"/><g><path d="m291 45.749v-10.749c0-19.33-15.67-35-35-35-19.33 0-35 15.67-35 35v10.749c11.285-2.448 22.993-3.749 35-3.749s23.715 1.301 35 3.749z"/></g><g><path d="m87.14 412h-11.14c-8.284 0-15 6.716-15 15s6.716 15 15 15h360c8.284 0 15-6.716 15-15s-6.716-15-15-15h-11.14c-6.863-12.895-12.718-26.273-17.536-40h-302.648c-4.818 13.727-10.673 27.105-17.536 40z"/><path d="m391 276.377v-69.377c0-74.439-60.561-135-135-135s-135 60.561-135 135v69.377c0 22.151-2.567 44.179-7.579 65.623h285.157c-5.011-21.444-7.578-43.472-7.578-65.623z"/></g></g></svg>