<svg width="38" height="30" viewBox="0 0 38 30" fill="none" xmlns="http://www.w3.org/2000/svg">
<g clip-path="url(#clip0)">
<path d="M23.4375 5.625C23.9938 5.625 24.5375 5.46005 25 5.15101C25.4626 4.84197 25.823 4.40272 26.0359 3.8888C26.2488 3.37488 26.3045 2.80938 26.196 2.26381C26.0874 1.71824 25.8196 1.2171 25.4262 0.823763C25.0329 0.430428 24.5318 0.162564 23.9862 0.0540427C23.4406 -0.0544783 22.8751 0.00121862 22.3612 0.21409C21.8473 0.426962 21.408 0.787447 21.099 1.24996C20.79 1.71247 20.625 2.25624 20.625 2.8125C20.625 3.55842 20.9213 4.27379 21.4488 4.80124C21.9762 5.32869 22.6916 5.625 23.4375 5.625ZM23.2031 12.7148C23.5356 12.9811 23.9491 13.1258 24.375 13.125H28.125C28.6223 13.125 29.0992 12.9275 29.4508 12.5758C29.8025 12.2242 30 11.7473 30 11.25C30 10.7527 29.8025 10.2758 29.4508 9.92418C29.0992 9.57255 28.6223 9.375 28.125 9.375H25.0324L20.8594 6.03516C20.5188 5.76172 20.0933 5.61603 19.6566 5.6233C19.2199 5.63058 18.7995 5.79037 18.4682 6.075L11.9057 11.7C11.6859 11.8885 11.5127 12.1253 11.3997 12.3919C11.2867 12.6585 11.237 12.9476 11.2545 13.2366C11.272 13.5257 11.3562 13.8067 11.5005 14.0577C11.6447 14.3088 11.8452 14.523 12.0861 14.6836L16.875 17.8781V24.375C16.875 24.8723 17.0725 25.3492 17.4242 25.7008C17.7758 26.0525 18.2527 26.25 18.75 26.25C19.2473 26.25 19.7242 26.0525 20.0758 25.7008C20.4275 25.3492 20.625 24.8723 20.625 24.375V16.875C20.6249 16.5664 20.5487 16.2625 20.4031 15.9904C20.2574 15.7184 20.0468 15.4864 19.79 15.3152L17.3666 13.6998L20.7797 10.7748L23.2031 12.7148ZM30 15C28.5166 15 27.0666 15.4399 25.8332 16.264C24.5999 17.0881 23.6386 18.2594 23.0709 19.6299C22.5032 21.0003 22.3547 22.5083 22.6441 23.9632C22.9335 25.418 23.6478 26.7544 24.6967 27.8033C25.7456 28.8522 27.082 29.5665 28.5368 29.8559C29.9917 30.1453 31.4997 29.9968 32.8701 29.4291C34.2406 28.8614 35.4119 27.9001 36.236 26.6668C37.0601 25.4334 37.5 23.9834 37.5 22.5C37.5 20.5109 36.7098 18.6032 35.3033 17.1967C33.8968 15.7902 31.9891 15 30 15ZM30 26.25C29.2583 26.25 28.5333 26.0301 27.9166 25.618C27.2999 25.206 26.8193 24.6203 26.5355 23.9351C26.2516 23.2498 26.1774 22.4958 26.3221 21.7684C26.4668 21.041 26.8239 20.3728 27.3484 19.8484C27.8728 19.3239 28.541 18.9668 29.2684 18.8221C29.9958 18.6774 30.7498 18.7516 31.4351 19.0355C32.1203 19.3193 32.706 19.7999 33.118 20.4166C33.5301 21.0333 33.75 21.7583 33.75 22.5C33.75 23.4946 33.3549 24.4484 32.6517 25.1517C31.9484 25.8549 30.9946 26.25 30 26.25ZM7.5 15C6.01664 15 4.5666 15.4399 3.33323 16.264C2.09986 17.0881 1.13856 18.2594 0.570907 19.6299C0.00324961 21.0003 -0.145275 22.5083 0.144114 23.9632C0.433503 25.418 1.14781 26.7544 2.1967 27.8033C3.2456 28.8522 4.58197 29.5665 6.03683 29.8559C7.49168 30.1453 8.99968 29.9968 10.3701 29.4291C11.7406 28.8614 12.9119 27.9001 13.736 26.6668C14.5601 25.4334 15 23.9834 15 22.5C15 20.5109 14.2098 18.6032 12.8033 17.1967C11.3968 15.7902 9.48913 15 7.5 15ZM7.5 26.25C6.75832 26.25 6.0333 26.0301 5.41662 25.618C4.79993 25.206 4.31928 24.6203 4.03546 23.9351C3.75163 23.2498 3.67736 22.4958 3.82206 21.7684C3.96675 21.041 4.32391 20.3728 4.84835 19.8484C5.3728 19.3239 6.04099 18.9668 6.76841 18.8221C7.49584 18.6774 8.24984 18.7516 8.93507 19.0355C9.62029 19.3193 10.206 19.7999 10.618 20.4166C11.0301 21.0333 11.25 21.7583 11.25 22.5C11.25 23.4946 10.8549 24.4484 10.1517 25.1517C9.44839 25.8549 8.49457 26.25 7.5 26.25Z" fill="black"/>
</g>
<defs>
<clipPath id="clip0">
<rect width="37.5" height="30" fill="white"/>
</clipPath>
</defs>
</svg>
