<svg width="30" height="30" viewBox="0 0 30 30" fill="none" xmlns="http://www.w3.org/2000/svg">
<path d="M29.5312 14.9725C29.5461 22.9788 23.0168 29.5256 15.0105 29.5312C11.5526 29.5337 8.37639 28.3283 5.88035 26.3138C5.23131 25.7899 5.18279 24.8172 5.7726 24.2274L6.43277 23.5672C6.93721 23.0628 7.74252 23.0076 8.30139 23.451C10.1404 24.9103 12.4676 25.7813 15 25.7813C20.9593 25.7813 25.7812 20.9583 25.7812 15C25.7812 9.04072 20.9583 4.21875 15 4.21875C12.1398 4.21875 9.54205 5.33022 7.6132 7.14445L10.5871 10.1183C11.1777 10.7089 10.7594 11.7188 9.9242 11.7188H1.40625C0.888457 11.7188 0.46875 11.299 0.46875 10.7813V2.2633C0.46875 1.42811 1.47855 1.0098 2.06918 1.60037L4.96207 4.49326C7.57084 2.00016 11.1066 0.46875 15 0.46875C23.0162 0.46875 29.5164 6.95977 29.5312 14.9725ZM18.9309 19.5888L19.5065 18.8487C19.9833 18.2357 19.8729 17.3521 19.2598 16.8754L16.875 15.0205V8.90625C16.875 8.12959 16.2454 7.5 15.4688 7.5H14.5312C13.7546 7.5 13.125 8.12959 13.125 8.90625V16.8546L16.9576 19.8355C17.5706 20.3122 18.4541 20.2018 18.9309 19.5888Z" fill="black"/>
</svg>
