<svg width="35" height="30" viewBox="0 0 35 30" fill="none" xmlns="http://www.w3.org/2000/svg">
<path d="M30.8839 6.42857H5.35714C4.76518 6.42857 4.28571 5.94911 4.28571 5.35714C4.28571 4.76518 4.76518 4.28571 5.35714 4.28571H31.0714C31.6634 4.28571 32.1429 3.80625 32.1429 3.21429C32.1429 1.43906 30.7038 0 28.9286 0H4.28571C1.91853 0 0 1.91853 0 4.28571V25.7143C0 28.0815 1.91853 30 4.28571 30H30.8839C32.7603 30 34.2857 28.5583 34.2857 26.7857V9.64286C34.2857 7.87031 32.7603 6.42857 30.8839 6.42857ZM27.8571 20.3571C26.6739 20.3571 25.7143 19.3975 25.7143 18.2143C25.7143 17.031 26.6739 16.0714 27.8571 16.0714C29.0404 16.0714 30 17.031 30 18.2143C30 19.3975 29.0404 20.3571 27.8571 20.3571Z" fill="black"/>
</svg>
