<svg width="33" height="30" viewBox="0 0 33 30" fill="none" xmlns="http://www.w3.org/2000/svg">
<path d="M8.99828 0.245085C8.92642 0.167401 8.84104 0.105764 8.74703 0.0637065C8.65301 0.0216494 8.55222 0 8.45042 0C8.34863 0 8.24784 0.0216494 8.15382 0.0637065C8.05981 0.105764 7.97443 0.167401 7.90257 0.245085L3.79819 4.64131L2.3351 3.10531C2.26325 3.02762 2.17787 2.96599 2.08385 2.92393C1.98984 2.88187 1.88905 2.86022 1.78725 2.86022C1.68546 2.86022 1.58466 2.88187 1.49065 2.92393C1.39664 2.96599 1.31126 3.02762 1.2394 3.10531L0.227485 4.1969C0.15538 4.27431 0.0981687 4.3663 0.0591317 4.46759C0.0200947 4.56887 0 4.67747 0 4.78714C0 4.89681 0.0200947 5.0054 0.0591317 5.10669C0.0981687 5.20797 0.15538 5.29996 0.227485 5.37737L3.29481 8.66882C3.44792 8.82561 3.65108 8.91305 3.86232 8.91305C4.07356 8.91305 4.27673 8.82561 4.42983 8.66882L5.43466 7.58417L10.0882 2.57132C10.2332 2.41498 10.3151 2.20336 10.3162 1.98236C10.3173 1.76136 10.2374 1.54882 10.094 1.39084L8.99828 0.245085ZM8.99828 11.2992C8.92642 11.2215 8.84104 11.1599 8.74703 11.1178C8.65301 11.0758 8.55222 11.0541 8.45042 11.0541C8.34863 11.0541 8.24784 11.0758 8.15382 11.1178C8.05981 11.1599 7.97443 11.2215 7.90257 11.2992L3.79819 15.7239L2.3351 14.1893C2.26325 14.1116 2.17787 14.05 2.08385 14.0079C1.98984 13.9658 1.88905 13.9442 1.78725 13.9442C1.68546 13.9442 1.58466 13.9658 1.49065 14.0079C1.39664 14.05 1.31126 14.1116 1.2394 14.1893L0.227485 15.2788C0.15538 15.3562 0.0981687 15.4482 0.0591317 15.5495C0.0200947 15.6508 0 15.7593 0 15.869C0 15.9787 0.0200947 16.0873 0.0591317 16.1886C0.0981687 16.2899 0.15538 16.3818 0.227485 16.4593L3.28708 19.7576C3.44008 19.9144 3.64313 20.0018 3.85427 20.0018C4.0654 20.0018 4.26846 19.9144 4.42145 19.7576L5.43337 18.6681L10.0869 13.6532C10.2313 13.498 10.313 13.2875 10.3141 13.0677C10.3152 12.8479 10.2356 12.6366 10.0927 12.4797L8.99828 11.2992ZM4.12497 23.3338C2.4176 23.3338 0.993189 24.8267 0.993189 26.6669C0.993189 28.507 2.41889 30 4.12497 30C4.94548 30 5.73239 29.6488 6.31258 29.0238C6.89277 28.3987 7.21872 27.5509 7.21872 26.6669C7.21872 25.7829 6.89277 24.9351 6.31258 24.31C5.73239 23.685 4.94548 23.3338 4.12497 23.3338ZM31.9687 24.4448H13.4062C13.1327 24.4448 12.8704 24.5619 12.677 24.7702C12.4836 24.9786 12.375 25.2612 12.375 25.5559V27.7779C12.375 28.0726 12.4836 28.3552 12.677 28.5636C12.8704 28.7719 13.1327 28.889 13.4062 28.889H31.9687C32.2423 28.889 32.5046 28.7719 32.698 28.5636C32.8913 28.3552 33 28.0726 33 27.7779V25.5559C33 25.2612 32.8913 24.9786 32.698 24.7702C32.5046 24.5619 32.2423 24.4448 31.9687 24.4448ZM31.9687 2.22412H13.4062C13.1327 2.22412 12.8704 2.34117 12.677 2.54953C12.4836 2.75789 12.375 3.04049 12.375 3.33515V5.55722C12.375 5.85189 12.4836 6.13448 12.677 6.34284C12.8704 6.5512 13.1327 6.66826 13.4062 6.66826H31.9687C32.2423 6.66826 32.5046 6.5512 32.698 6.34284C32.8913 6.13448 33 5.85189 33 5.55722V3.33515C33 3.04049 32.8913 2.75789 32.698 2.54953C32.5046 2.34117 32.2423 2.22412 31.9687 2.22412ZM31.9687 13.3345H13.4062C13.1327 13.3345 12.8704 13.4515 12.677 13.6599C12.4836 13.8682 12.375 14.1508 12.375 14.4455V16.6676C12.375 16.9622 12.4836 17.2448 12.677 17.4532C12.8704 17.6616 13.1327 17.7786 13.4062 17.7786H31.9687C32.2423 17.7786 32.5046 17.6616 32.698 17.4532C32.8913 17.2448 33 16.9622 33 16.6676V14.4455C33 14.1508 32.8913 13.8682 32.698 13.6599C32.5046 13.4515 32.2423 13.3345 31.9687 13.3345Z" fill="black"/>
</svg>
