<svg width="30" height="30" viewBox="0 0 30 30" fill="none" xmlns="http://www.w3.org/2000/svg">
<path d="M0 14.7725V2.8125C0 1.25918 1.25918 0 2.8125 0H14.7725C15.5185 3.90045e-06 16.2338 0.296323 16.7613 0.82377L29.1762 13.2387C30.2746 14.3371 30.2746 16.1179 29.1762 17.2162L17.2162 29.1762C16.1179 30.2746 14.3371 30.2746 13.2387 29.1762L0.82377 16.7613C0.296323 16.2338 3.90045e-06 15.5185 0 14.7725H0ZM6.5625 3.75C5.00918 3.75 3.75 5.00918 3.75 6.5625C3.75 8.11582 5.00918 9.375 6.5625 9.375C8.11582 9.375 9.375 8.11582 9.375 6.5625C9.375 5.00918 8.11582 3.75 6.5625 3.75Z" fill="black"/>
</svg>
