<?xml version="1.0" encoding="iso-8859-1"?>
<!-- Generator: Adobe Illustrator 19.0.0, SVG Export Plug-In . SVG Version: 6.00 Build 0)  -->
<svg version="1.1" id="Capa_1" xmlns="http://www.w3.org/2000/svg" xmlns:xlink="http://www.w3.org/1999/xlink" x="0px" y="0px"
	 viewBox="0 0 512 512" style="enable-background:new 0 0 512 512;" xml:space="preserve">
<g>
	<g>
		<path d="M401.095,38.851L348.683,8.648L296.27,38.851L243.858,8.648l-52.413,30.202L124.021,0v402.609h-80.54v54.11
			C43.481,487.202,68.28,512,98.763,512h314.475c30.482,0,55.282-24.798,55.282-55.281V0L401.095,38.851z M98.763,481.978
			c-13.928,0-25.26-11.33-25.26-25.259v-24.088h284.453v24.088c0,9.094,2.209,17.684,6.115,25.259H98.763z M413.237,481.978
			c-13.927,0-25.259-11.33-25.259-25.259v-54.11H154.043V51.948l37.401,21.551l52.413-30.2l52.413,30.2l52.413-30.201l52.413,30.201
			l37.402-21.551v404.771h0C438.497,470.648,427.166,481.978,413.237,481.978z"/>
	</g>
</g>
<g>
	<g>
		<rect x="184.066" y="135.49" width="224.405" height="30.022"/>
	</g>
</g>
<g>
	<g>
		<rect x="184.066" y="192.742" width="224.405" height="30.022"/>
	</g>
</g>
<g>
	<g>
		<rect x="184.066" y="249.994" width="112.203" height="30.022"/>
	</g>
</g>
<g>
</g>
<g>
</g>
<g>
</g>
<g>
</g>
<g>
</g>
<g>
</g>
<g>
</g>
<g>
</g>
<g>
</g>
<g>
</g>
<g>
</g>
<g>
</g>
<g>
</g>
<g>
</g>
<g>
</g>
</svg>
