<svg width="37" height="30" viewBox="0 0 37 30" fill="none" xmlns="http://www.w3.org/2000/svg">
<g clip-path="url(#clip0)">
<path d="M35.2755 6.94922L31.4728 0.878906C31.1329 0.333984 30.5294 0 29.8849 0H6.21301C5.56848 0 4.96496 0.333984 4.62512 0.878906L0.822386 6.94922C-1.14051 10.084 0.599729 14.4434 4.2677 14.9414C4.53137 14.9766 4.8009 14.9941 5.07043 14.9941C6.80481 14.9941 8.33996 14.2324 9.39465 13.0547C10.4493 14.2324 11.9904 14.9941 13.7189 14.9941C15.4532 14.9941 16.9884 14.2324 18.0431 13.0547C19.0978 14.2324 20.6388 14.9941 22.3673 14.9941C24.1017 14.9941 25.6368 14.2324 26.6915 13.0547C27.7521 14.2324 29.2872 14.9941 31.0158 14.9941C31.2911 14.9941 31.5548 14.9766 31.8185 14.9414C35.4982 14.4492 37.2443 10.0898 35.2755 6.94922ZM31.0275 16.875C30.4415 16.875 29.8615 16.7871 29.299 16.6523V22.5H6.79895V16.6523C6.23645 16.7812 5.65637 16.875 5.07043 16.875C4.71887 16.875 4.36145 16.8516 4.01575 16.8047C3.68762 16.7578 3.36535 16.6816 3.05481 16.5938V28.125C3.05481 29.1621 3.8927 30 4.92981 30H31.1798C32.2169 30 33.0548 29.1621 33.0548 28.125V16.5938C32.7384 16.6875 32.422 16.7637 32.0939 16.8047C31.7365 16.8516 31.3849 16.875 31.0275 16.875Z" fill="black"/>
</g>
<defs>
<clipPath id="clip0">
<rect width="36.0938" height="30" fill="white"/>
</clipPath>
</defs>
</svg>
