<svg width="23" height="30" viewBox="0 0 23 30" fill="none" xmlns="http://www.w3.org/2000/svg">
<g clip-path="url(#clip0)">
<path d="M10.0938 29.3947C1.58027 17.0526 0 15.7859 0 11.25C0 5.03678 5.03678 0 11.25 0C17.4632 0 22.5 5.03678 22.5 11.25C22.5 15.7859 20.9197 17.0526 12.4062 29.3947C11.8475 30.2018 10.6525 30.2017 10.0938 29.3947ZM11.25 15.9375C13.8388 15.9375 15.9375 13.8388 15.9375 11.25C15.9375 8.66115 13.8388 6.5625 11.25 6.5625C8.66115 6.5625 6.5625 8.66115 6.5625 11.25C6.5625 13.8388 8.66115 15.9375 11.25 15.9375Z" fill="black"/>
</g>
<defs>
<clipPath id="clip0">
<rect width="22.5" height="30" fill="white"/>
</clipPath>
</defs>
</svg>
