<svg width="30" height="29" viewBox="0 0 30 29" fill="none" xmlns="http://www.w3.org/2000/svg">
<path d="M14.2989 1.42705C14.5983 0.505738 15.9017 0.50574 16.2011 1.42705L18.8984 9.72847C19.0322 10.1405 19.4162 10.4195 19.8494 10.4195H28.578C29.5468 10.4195 29.9495 11.6591 29.1658 12.2285L22.1042 17.359C21.7537 17.6137 21.6071 18.065 21.7409 18.4771L24.4382 26.7785C24.7376 27.6998 23.6831 28.4659 22.8994 27.8965L15.8378 22.766C15.4873 22.5113 15.0127 22.5113 14.6622 22.766L7.6006 27.8965C6.81689 28.4659 5.76241 27.6998 6.06176 26.7785L8.75906 18.4771C8.89293 18.065 8.74627 17.6137 8.39579 17.359L1.33417 12.2285C0.550457 11.6591 0.953234 10.4195 1.92196 10.4195H10.6506C11.0838 10.4195 11.4678 10.1405 11.6016 9.72847L14.2989 1.42705Z" fill="#C1C1C1"/>
</svg>
