<svg width="30" height="29" viewBox="0 0 30 29" fill="none" xmlns="http://www.w3.org/2000/svg">
<path d="M14.0489 1.42705C14.3483 0.505738 15.6517 0.50574 15.9511 1.42705L18.6484 9.72847C18.7822 10.1405 19.1662 10.4195 19.5994 10.4195H28.328C29.2968 10.4195 29.6995 11.6591 28.9158 12.2285L21.8542 17.359C21.5037 17.6137 21.3571 18.065 21.4909 18.4771L24.1882 26.7785C24.4876 27.6998 23.4331 28.4659 22.6494 27.8965L15.5878 22.766C15.2373 22.5113 14.7627 22.5113 14.4122 22.766L7.3506 27.8965C6.56689 28.4659 5.51241 27.6998 5.81176 26.7785L8.50906 18.4771C8.64293 18.065 8.49627 17.6137 8.14579 17.359L1.08417 12.2285C0.300457 11.6591 0.703234 10.4195 1.67196 10.4195H10.4006C10.8338 10.4195 11.2178 10.1405 11.3516 9.72847L14.0489 1.42705Z" fill="#FFB802"/>
</svg>
